<svg xmlns="http://www.w3.org/2000/svg" width="300px" height="300px" viewBox="0 0 24 24"><g fill="none" stroke="currentColor" stroke-linecap="round" stroke-linejoin="round" stroke-width="1.5">
<!--path d="m13.163 2.168l8.021 5.828c.694.504.984 1.397.719 2.212l-3.064 9.43a1.98 1.98 0 0 1-1.881 1.367H7.042a1.98 1.98 0 0 1-1.881-1.367l-3.064-9.43a1.98 1.98 0 0 1 .719-2.212l8.021-5.828a1.98 1.98 0 0 1 2.326 0"/-->
<path d="m12 22l5.5-5.5a7.778 7.778 0 1 0-11 0z" />
<path d="M10 8h3a1 1 0 0 1 1 1v2a1 1 0 0 1-1 1h-2a1 1 0 0 0-1 1v2a1 1 0 0 0 1 1h3"/></g></svg>
